<svg width="360" height="304" viewBox="0 0 360 304" fill="none" xmlns="http://www.w3.org/2000/svg">
<g filter="url(#filter0_i_31_143)">
<rect x="20" y="122" width="105" height="167" rx="9" fill="#202020"/>
</g>
<rect x="20.5" y="122.5" width="104" height="166" rx="8.5" stroke="white" stroke-opacity="0.03"/>
<g filter="url(#filter1_i_31_143)">
<rect x="150" y="122" width="209" height="167" rx="9" fill="#202020"/>
</g>
<rect x="150.5" y="122.5" width="208" height="166" rx="8.5" stroke="white" stroke-opacity="0.03"/>
<g filter="url(#filter2_f_31_143)">
<path d="M88 123H118.5C121.814 123 124.5 125.686 124.5 129V160.5" stroke="#5fabab"/>
</g>
<g filter="url(#filter3_f_31_143)">
<path d="M52.5 288.5L22 288.5C18.6863 288.5 16 285.814 16 282.5L16 251" stroke="#5fabab"/>
</g>
<rect x="38" y="211" width="60" height="7" rx="3.5" fill="white" fill-opacity="0.07"/>
<rect x="38" y="224" width="32" height="7" rx="3.5" fill="white" fill-opacity="0.07"/>
<rect x="38" y="237" width="19" height="7" rx="3.5" fill="white" fill-opacity="0.22"/>
<rect x="168" y="211" width="60" height="7" rx="3.5" fill="white" fill-opacity="0.07"/>
<rect x="168" y="224" width="32" height="7" rx="3.5" fill="white" fill-opacity="0.07"/>
<rect x="168" y="237" width="19" height="7" rx="3.5" fill="white" fill-opacity="0.22"/>
<path opacity="0.6" d="M30 122L116 122C120.971 122 125 126.029 125 131V165" stroke="url(#paint0_linear_31_143)"/>
<path opacity="0.6" d="M115 289L29 289C24.0294 289 20 284.971 20 280L20 246" stroke="url(#paint1_linear_31_143)"/>
<path opacity="0.6" d="M264 123L350 123C354.971 123 359 127.029 359 132V166" stroke="url(#paint2_linear_31_143)"/>
<path opacity="0.6" d="M245 289L159 289C154.029 289 150 284.971 150 280L150 246" stroke="url(#paint3_linear_31_143)"/>
<circle cx="87.5" cy="170.5" r="16.5" fill="url(#paint4_linear_31_143)"/>
<path d="M44.7397 156.697L58.9545 163.096L46.3058 172.207L44.7397 156.697Z" fill="url(#paint5_linear_31_143)"/>
<circle cx="325.063" cy="170.5" r="16.5" fill="url(#paint6_linear_31_143)"/>
<path d="M282.303 156.697L296.517 163.096L283.869 172.207L282.303 156.697Z" fill="url(#paint7_linear_31_143)"/>
<path opacity="0.3" d="M186 1V55" stroke="url(#paint8_linear_31_143)"/>
<path d="M173 1V80.3193L157 100" stroke="url(#paint9_linear_31_143)"/>
<path d="M143 1V82.9904L106 127" stroke="url(#paint10_linear_31_143)"/>
<path opacity="0.3" d="M201 1V55" stroke="url(#paint11_linear_31_143)"/>
<path d="M215 0V80.1205L231 100" stroke="url(#paint12_linear_31_143)"/>
<path d="M245 1V82.3397L282 126" stroke="url(#paint13_linear_31_143)"/>
<defs>
<filter id="filter0_i_31_143" x="20" y="122" width="105" height="171" filterUnits="userSpaceOnUse" color-interpolation-filters="sRGB">
<feFlood flood-opacity="0" result="BackgroundImageFix"/>
<feBlend mode="normal" in="SourceGraphic" in2="BackgroundImageFix" result="shape"/>
<feColorMatrix in="SourceAlpha" type="matrix" values="0 0 0 0 0 0 0 0 0 0 0 0 0 0 0 0 0 0 127 0" result="hardAlpha"/>
<feMorphology radius="6" operator="erode" in="SourceAlpha" result="effect1_innerShadow_31_143"/>
<feOffset dy="4"/>
<feGaussianBlur stdDeviation="15.1"/>
<feComposite in2="hardAlpha" operator="arithmetic" k2="-1" k3="1"/>
<feColorMatrix type="matrix" values="0 0 0 0 0 0 0 0 0 0 0 0 0 0 0 0 0 0 0.25 0"/>
<feBlend mode="normal" in2="shape" result="effect1_innerShadow_31_143"/>
</filter>
<filter id="filter1_i_31_143" x="150" y="122" width="209" height="171" filterUnits="userSpaceOnUse" color-interpolation-filters="sRGB">
<feFlood flood-opacity="0" result="BackgroundImageFix"/>
<feBlend mode="normal" in="SourceGraphic" in2="BackgroundImageFix" result="shape"/>
<feColorMatrix in="SourceAlpha" type="matrix" values="0 0 0 0 0 0 0 0 0 0 0 0 0 0 0 0 0 0 127 0" result="hardAlpha"/>
<feMorphology radius="6" operator="erode" in="SourceAlpha" result="effect1_innerShadow_31_143"/>
<feOffset dy="4"/>
<feGaussianBlur stdDeviation="15.1"/>
<feComposite in2="hardAlpha" operator="arithmetic" k2="-1" k3="1"/>
<feColorMatrix type="matrix" values="0 0 0 0 0 0 0 0 0 0 0 0 0 0 0 0 0 0 0.25 0"/>
<feBlend mode="normal" in2="shape" result="effect1_innerShadow_31_143"/>
</filter>
<filter id="filter2_f_31_143" x="73.4" y="107.9" width="66.2" height="67.2" filterUnits="userSpaceOnUse" color-interpolation-filters="sRGB">
<feFlood flood-opacity="0" result="BackgroundImageFix"/>
<feBlend mode="normal" in="SourceGraphic" in2="BackgroundImageFix" result="shape"/>
<feGaussianBlur stdDeviation="7.3" result="effect1_foregroundBlur_31_143"/>
</filter>
<filter id="filter3_f_31_143" x="0.9" y="236.4" width="66.2" height="67.2" filterUnits="userSpaceOnUse" color-interpolation-filters="sRGB">
<feFlood flood-opacity="0" result="BackgroundImageFix"/>
<feBlend mode="normal" in="SourceGraphic" in2="BackgroundImageFix" result="shape"/>
<feGaussianBlur stdDeviation="7.3" result="effect1_foregroundBlur_31_143"/>
</filter>
<linearGradient id="paint0_linear_31_143" x1="134.403" y1="117.053" x2="109.469" y2="178.065" gradientUnits="userSpaceOnUse">
<stop stop-color="#DFFF01"/>
<stop offset="0.5" stop-color="#778801" stop-opacity="0.535"/>
<stop offset="1" stop-opacity="0"/>
</linearGradient>
<linearGradient id="paint1_linear_31_143" x1="10.5973" y1="293.947" x2="35.5314" y2="232.935" gradientUnits="userSpaceOnUse">
<stop stop-color="#DFFF01"/>
<stop offset="0.5" stop-color="#778801" stop-opacity="0.535"/>
<stop offset="1" stop-opacity="0"/>
</linearGradient>
<linearGradient id="paint2_linear_31_143" x1="368.403" y1="118.053" x2="343.469" y2="179.065" gradientUnits="userSpaceOnUse">
<stop stop-color="#DFFF01"/>
<stop offset="0.5" stop-color="#778801" stop-opacity="0.535"/>
<stop offset="1" stop-opacity="0"/>
</linearGradient>
<linearGradient id="paint3_linear_31_143" x1="140.597" y1="293.947" x2="165.531" y2="232.935" gradientUnits="userSpaceOnUse">
<stop stop-color="#DFFF01"/>
<stop offset="0.5" stop-color="#778801" stop-opacity="0.535"/>
<stop offset="1" stop-opacity="0"/>
</linearGradient>
<linearGradient id="paint4_linear_31_143" x1="87.5" y1="154" x2="87.5" y2="187" gradientUnits="userSpaceOnUse">
<stop stop-color="#D9D9D9" stop-opacity="0.38"/>
<stop offset="1" stop-opacity="0"/>
</linearGradient>
<linearGradient id="paint5_linear_31_143" x1="44.7397" y1="156.697" x2="55.2603" y2="171.303" gradientUnits="userSpaceOnUse">
<stop stop-color="#D9D9D9" stop-opacity="0.38"/>
<stop offset="1" stop-opacity="0"/>
</linearGradient>
<linearGradient id="paint6_linear_31_143" x1="325.063" y1="154" x2="325.063" y2="187" gradientUnits="userSpaceOnUse">
<stop stop-color="#D9D9D9" stop-opacity="0.38"/>
<stop offset="1" stop-opacity="0"/>
</linearGradient>
<linearGradient id="paint7_linear_31_143" x1="282.303" y1="156.697" x2="292.823" y2="171.303" gradientUnits="userSpaceOnUse">
<stop stop-color="#D9D9D9" stop-opacity="0.38"/>
<stop offset="1" stop-opacity="0"/>
</linearGradient>
<linearGradient id="paint8_linear_31_143" x1="186.5" y1="1" x2="186.5" y2="55" gradientUnits="userSpaceOnUse">
<stop stop-color="white"/>
<stop offset="1" stop-color="white" stop-opacity="0"/>
</linearGradient>
<linearGradient id="paint9_linear_31_143" x1="165" y1="1" x2="165" y2="100" gradientUnits="userSpaceOnUse">
<stop stop-color="#B4CD05"/>
<stop offset="1" stop-color="#5A6703" stop-opacity="0"/>
</linearGradient>
<linearGradient id="paint10_linear_31_143" x1="124.5" y1="1" x2="124.5" y2="127" gradientUnits="userSpaceOnUse">
<stop stop-color="#B4CD05"/>
<stop offset="1" stop-color="#5A6703" stop-opacity="0"/>
</linearGradient>
<linearGradient id="paint11_linear_31_143" x1="200.5" y1="1" x2="200.5" y2="55" gradientUnits="userSpaceOnUse">
<stop stop-color="white"/>
<stop offset="1" stop-color="white" stop-opacity="0"/>
</linearGradient>
<linearGradient id="paint12_linear_31_143" x1="223" y1="0" x2="223" y2="100" gradientUnits="userSpaceOnUse">
<stop stop-color="#B4CD05"/>
<stop offset="1" stop-color="#5A6703" stop-opacity="0"/>
</linearGradient>
<linearGradient id="paint13_linear_31_143" x1="263.5" y1="1" x2="263.5" y2="126" gradientUnits="userSpaceOnUse">
<stop stop-color="#B4CD05"/>
<stop offset="1" stop-color="#5A6703" stop-opacity="0"/>
</linearGradient>
</defs>
</svg>
